<?xml version="1.0" standalone="no"?>
<!DOCTYPE svg PUBLIC "-//W3C//DTD SVG 20010904//EN"
 "http://www.w3.org/TR/2001/REC-SVG-20010904/DTD/svg10.dtd">
<svg version="1.0" xmlns="http://www.w3.org/2000/svg"
 width="1778.000000pt" height="1574.000000pt" viewBox="0 0 1778.000000 1574.000000"
 preserveAspectRatio="xMidYMid meet">

<g transform="translate(0.000000,1574.000000) scale(0.100000,-0.100000)"
fill="#000000" stroke="none">
<path d="M3432 13729 c-831 -47 -1553 -314 -2156 -799 -512 -411 -870 -935
-1080 -1579 -81 -248 -132 -482 -173 -796 -15 -119 -17 -406 -20 -3430 -4
-3344 -2 -3599 32 -3934 77 -745 305 -1334 718 -1851 626 -785 1540 -1259
2567 -1330 196 -13 8670 -13 8980 0 489 21 784 70 1117 184 492 169 932 446
1319 831 536 534 870 1176 979 1883 49 317 48 302 51 1767 3 1372 3 1389 -15
1320 -101 -377 -449 -638 -851 -638 -135 0 -208 16 -325 73 -226 109 -403 323
-469 571 -13 48 -15 -75 -15 -1093 -1 -1024 -5 -1271 -27 -1522 -4 -52 -3 -66
7 -61 27 17 -23 -225 -87 -418 -38 -115 -111 -263 -202 -413 -141 -230 -442
-488 -758 -647 -117 -59 -406 -137 -509 -137 -34 0 -66 -5 -71 -10 -7 -7
-1524 -9 -4610 -8 l-4599 3 -135 37 c-200 54 -301 91 -414 151 -94 50 -245
142 -256 156 -3 4 -17 14 -31 23 -78 50 -363 333 -371 369 -2 7 -21 43 -44 79
-23 36 -61 102 -85 145 -23 44 -46 83 -51 86 -24 16 -131 399 -148 530 -8 60
-10 1111 -8 3654 l4 3570 26 105 c68 271 104 355 262 620 73 124 93 148 236
291 162 163 257 232 480 352 155 83 414 159 605 179 79 7 1103 10 3591 9
l3481 -2 6 138 c4 76 13 194 22 263 16 127 80 535 92 580 l6 25 7 -25 c5 -21
8 -18 14 23 10 68 38 144 87 239 34 66 64 103 144 183 137 137 269 210 450
248 63 14 -339 15 -3785 15 -2120 -1 -3915 -4 -3988 -9z"/>
<path d="M7698 10540 c-787 -43 -1510 -313 -2103 -786 -141 -113 -446 -417
-559 -559 -573 -721 -871 -1639 -818 -2523 47 -775 311 -1460 796 -2062 195
-243 551 -614 599 -626 47 -11 72 10 144 121 253 394 512 661 853 880 189 121
254 131 363 54 247 -173 301 -200 453 -224 227 -37 257 -105 167 -380 -26 -80
-45 -146 -42 -149 2 -2 173 -59 379 -126 206 -68 380 -125 387 -127 7 -3 -30
122 -82 277 -52 155 -97 301 -100 325 -13 81 33 132 142 160 198 50 330 107
482 209 113 77 133 86 183 86 109 0 495 -266 714 -491 146 -151 235 -276 338
-476 72 -139 119 -168 196 -122 59 35 440 426 554 569 451 566 705 1167 793
1880 27 223 25 668 -6 895 -61 459 -173 842 -342 1171 -540 1050 -1481 1760
-2611 1968 -266 49 -603 71 -880 56z m472 -2145 c119 -21 302 -81 411 -135
416 -209 694 -576 801 -1057 30 -134 33 -490 5 -628 -63 -311 -199 -568 -411
-781 -210 -209 -447 -336 -758 -406 -91 -20 -129 -23 -328 -23 -199 0 -237 3
-328 23 -308 69 -549 197 -752 402 -292 292 -441 667 -441 1108 1 426 145 785
431 1072 244 246 568 398 934 440 99 12 323 4 436 -15z"/>
<path d="M7431 3949 c-45 -138 -81 -252 -79 -253 1 -2 217 -74 478 -160 261
-87 535 -177 608 -201 73 -24 131 -41 128 -37 -2 4 -49 148 -105 319 l-101
313 -413 135 c-227 74 -418 135 -423 135 -5 0 -47 -113 -93 -251z"/>
<path d="M7315 3598 c-51 -137 -112 -340 -102 -343 55 -18 355 -50 567 -60
175 -8 660 24 660 44 0 5 -1058 358 -1106 369 -8 2 -16 -2 -19 -10z"/>
</g>
</svg>
